Coordinates
version=1
nRows=20
nColumns=34
inDegrees=yes

Units are S.I. units (second, meters, Newtons, ...)
If the header above contains a line with 'inDegrees', this indicates whether rotational values are in degrees (yes) or radians (no).

endheader
time	pelvis_tilt	pelvis_list	pelvis_rotation	pelvis_tx	pelvis_ty	pelvis_tz	hip_flexion_r	hip_adduction_r	hip_rotation_r	knee_angle_r	ankle_angle_r	subtalar_angle_r	mtp_angle_r	hip_flexion_l	hip_adduction_l	hip_rotation_l	knee_angle_l	ankle_angle_l	subtalar_angle_l	mtp_angle_l	lumbar_extension	lumbar_bending	lumbar_rotation	arm_flex_r	arm_add_r	arm_rot_r	elbow_flex_r	pro_sup_r	arm_flex_l	arm_add_l	arm_rot_l	elbow_flex_l	pro_sup_l
      0.95000000	      0.24257409	     -1.23819617	      7.29785363	     -1.02253875	      0.93027774	     -0.17909837	     -1.98682168	      6.04620608	     -2.59395133	    -10.15805140	      9.13453650	     -2.96804792	      3.40096106	     23.58071969	      1.06429144	      1.80415585	    -46.17736242	      1.26729829	     -7.57426550	     19.13274551	     -7.47119989	      3.49106114	      1.95486723	     -7.39699378	    -20.93327437	      7.78938487	     35.34962850	     90.00000000	     -5.13622328	    -15.62041348	     13.50160590	     25.73238139	     90.00000000
      0.96000000	      0.16331049	     -1.24719368	      7.49295138	     -1.01122109	      0.92944354	     -0.17950111	     -3.19689323	      6.18798389	     -2.54631977	     -9.19080375	      9.37196635	     -2.89326022	      3.39971256	     24.22167827	      1.12229833	      1.67479044	    -43.26759569	      1.30293654	     -7.91189046	     19.05582775	     -7.37718865	      3.46068458	      2.20022030	     -7.18521326	    -21.06181984	      7.73419817	     35.57750620	     90.00000000	     -5.26440689	    -15.58183508	     13.21560527	     25.60936263	     90.00000000
      0.97000000	      0.62343146	     -0.91950356	      7.48838140	     -0.99996376	      0.92936436	     -0.17992803	     -4.96201580	      6.01340751	     -2.36305035	     -8.35860160	      9.55173636	     -3.24376333	      3.32049820	     23.93121346	      1.44496305	      1.39691683	    -39.76816966	      0.68764814	     -9.23399713	     18.68322125	     -8.01667255	      3.12882724	      2.58125533	     -6.80654105	    -21.20408225	      7.66860736	     35.75929415	     90.00000000	     -5.19354922	    -15.48731936	     12.75413909	     25.13600029	     90.00000000
      0.98000000	      0.59108009	     -0.94950482	      7.57232515	     -0.98861957	      0.92812207	     -0.18040121	     -6.15873032	      6.15420342	     -2.19706085	     -7.54210298	      9.83148092	     -3.05561449	      3.34747545	     24.31805802	      1.48158992	      1.23708038	    -36.50088121	      0.37953377	     -9.70481433	     18.45364085	     -8.00944498	      3.14459524	      2.83883869	     -6.58553264	    -21.40904525	      7.61728591	     36.13614191	     90.00000000	     -5.40599253	    -15.47460935	     12.60382882	     25.14910561	     90.00000000
      0.99000000	      1.10078047	     -0.73880303	      7.59063588	     -0.97717204	      0.92770373	     -0.18107237	     -7.93853594	      6.07794967	     -2.19618231	     -6.78805574	      9.99011675	     -3.10543337	      3.23298297	     23.81308821	      1.70996951	      1.03411477	    -32.75503141	     -0.20482779	    -11.04006620	     17.18443550	     -8.73655708	      3.03402722	      3.13398542	     -6.24631611	    -21.64231730	      7.45069877	     36.52149287	     90.00000000	     -5.91694032	    -15.64032098	     12.50107261	     26.11342436	     90.00000000
      1.00000000	      1.24567730	     -0.79976545	      7.63600556	     -0.96569451	      0.92625865	     -0.18148676	     -9.29822300	      6.25927848	     -2.15243661	     -6.02530644	     10.27415629	     -2.84502952	      3.26560514	     23.85120699	      1.66299699	      0.79715150	    -29.28229509	     -0.28952850	    -11.19940628	     16.85481406	     -8.90199447	      3.04240544	      3.49806019	     -6.00509311	    -21.80539460	      7.44879256	     36.76997191	     90.00000000	     -5.44625132	    -15.30344499	     11.91351486	     24.78139949	     90.00000000
      1.01000000	      1.16269980	     -1.04242257	      7.70000436	     -0.95424961	      0.92432593	     -0.18214278	    -10.17480586	      6.59966523	     -2.21122176	     -5.66637770	     10.64242918	     -2.76109261	      3.36309617	     24.16392793	      1.50496065	      0.64996871	    -25.91003651	     -0.13864555	    -11.05110270	     16.70910714	     -8.84108634	      3.30559725	      3.73140632	     -5.78033021	    -22.02773372	      7.36827443	     37.07487658	     90.00000000	     -5.63833307	    -15.23336192	     11.86901070	     24.81758530	     90.00000000
      1.02000000	      1.72843197	     -0.83088020	      7.71480630	     -0.94248973	      0.92354566	     -0.18288833	    -11.91402596	      6.51313315	     -2.30572669	     -5.15418686	     10.90755265	     -2.45610112	      3.72917240	     23.45031461	      1.70493714	      0.38606187	    -22.25343937	      0.42412624	    -10.23597827	     11.54015223	     -9.54399012	      3.13265751	      4.07609906	     -5.35993579	    -22.17993622	      7.46845260	     37.00266001	     90.00000000	     -5.42897755	    -15.15824763	     12.34000900	     24.14921909	     90.00000000
      1.03000000	      1.87675291	     -0.95168135	      7.73394779	     -0.93080109	      0.92186882	     -0.18360218	    -13.02632850	      6.72053475	     -2.27875266	     -4.88920467	     11.14283212	     -2.29426580	      3.80618682	     23.33299382	      1.61877946	      0.10333215	    -18.89048201	      0.53401659	     -9.14346046	     11.50298082	     -9.73395099	      3.27766847	      4.31766939	     -5.20262455	    -22.38443941	      7.37330427	     37.54949546	     90.00000000	     -5.46990036	    -14.98325291	     11.94494715	     23.82192848	     90.00000000
      1.04000000	      2.00127023	     -1.01944080	      7.76674261	     -0.91896919	      0.91997477	     -0.18451246	    -14.09768104	      6.85349845	     -2.20226713	     -4.69990681	     11.48282430	     -2.11102175	      3.91936892	     23.17426038	      1.63179184	     -0.09516940	    -15.65142470	      0.73402183	     -7.61195516	     11.44739226	     -9.87706016	      3.36939744	      4.54645806	     -5.00881489	    -22.57667477	      7.27255128	     37.81193207	     90.00000000	     -5.57340708	    -14.90410512	     11.89851504	     23.70857192	     90.00000000
      1.05000000	      1.85348385	     -1.22454527	      7.79476673	     -0.90722702	      0.91774906	     -0.18559055	    -14.72596133	      7.05666886	     -2.14236938	     -4.73299758	     11.72442018	     -1.93691102	      4.03115735	     23.30474525	      1.59852616	     -0.01487790	    -12.65031228	      0.86493283	     -6.37471935	     11.46410678	     -9.70234365	      3.58403537	      4.76677952	     -4.77431227	    -22.72771772	      7.21905818	     37.87869947	     90.00000000	     -5.70420323	    -14.75540493	     11.84204429	     23.59041482	     90.00000000
      1.06000000	      1.99282556	     -1.26705830	      7.67340139	     -0.89530569	      0.91594581	     -0.18647648	    -15.57143173	      7.07434217	     -2.24026660	     -5.00530686	     12.15444605	     -1.25339486	      4.36868340	     23.14500715	      1.56638322	     -0.70933624	    -10.06669702	      1.26796067	     -3.46735563	     11.59117377	     -9.87519241	      3.62747835	      5.05392912	     -4.59759162	    -22.90239849	      7.22821881	     38.16899504	     90.00000000	     -5.63807251	    -14.60265357	     11.94843996	     23.01621933	     90.00000000
      1.07000000	      1.94557730	     -1.41865792	      7.63132119	     -0.88335128	      0.91391300	     -0.18770202	    -16.17691059	      7.17245779	     -2.26975792	     -5.34324972	     12.47326651	     -0.71603835	      4.68788498	     23.22733185	      1.54112480	     -1.24565801	     -7.91068637	      1.58724256	     -1.00408809	     11.62938967	     -9.78847855	      3.79129387	      5.23271019	     -4.44449799	    -23.06444289	      7.25294772	     38.31456244	     90.00000000	     -5.72531540	    -14.48822287	     12.33346902	     22.77207814	     90.00000000
      1.08000000	      1.84782256	     -1.58167024	      7.53496487	     -0.87128364	      0.91186402	     -0.18881692	    -16.62493150	      7.26548990	     -2.25333814	     -5.86777532	     12.70414316	     -0.24509604	      5.03646709	     23.40367652	      1.49455211	     -1.97093108	     -6.25746140	      1.66744241	      1.83064894	     11.73244517	     -9.64458568	      3.93961336	      5.46308727	     -4.22896054	    -23.13321126	      7.11461235	     38.23510897	     90.00000000	     -5.75419982	    -14.32727080	     12.46557983	     22.36235005	     90.00000000
      1.09000000	      1.77055390	     -1.73223390	      7.46934088	     -0.85898418	      0.91002463	     -0.19018424	    -17.04942385	      7.33913953	     -2.27240806	     -6.51319701	     12.86298344	      0.12741698	      5.45183120	     23.59581667	      1.49160116	     -2.74323580	     -5.16903184	      1.60217930	      4.47272116	     11.82891812	     -9.50186561	      4.09553248	      5.60818989	     -4.16579421	    -23.26790374	      7.11483474	     38.42227001	     90.00000000	     -5.79622388	    -14.14629170	     12.62468616	     21.93975177	     90.00000000
      1.10000000	      1.72096811	     -1.92405836	      7.39254646	     -0.84653672	      0.90834577	     -0.19163773	    -17.50350486	      7.44630282	     -2.25778631	     -7.11590010	     12.86515570	      0.41905411	      5.69479862	     23.75780046	      1.46480797	     -3.12120952	     -4.59954474	      1.28144113	      6.17154937	     11.88671112	     -9.34873399	      4.29606731	      5.74357311	     -4.10806003	    -23.34644831	      7.02304679	     38.47800733	     90.00000000	     -5.91336504	    -13.96745263	     12.69747056	     21.68542551	     90.00000000
      1.11000000	      1.69506324	     -1.95387462	      7.21639666	     -0.83375018	      0.90690191	     -0.19276971	    -17.88343513	      7.35505686	     -2.34017816	     -8.00563477	     12.92368898	      0.97263849	      6.17342609	     24.02730235	      1.50328572	     -3.94767437	     -4.93542648	      1.51235408	      8.24788868	     12.05683378	     -9.26163173	      4.26857464	      5.91239768	     -4.05580209	    -23.33558185	      6.94428912	     38.36443042	     90.00000000	     -5.92498527	    -13.85523611	     12.90261120	     21.10358111	     90.00000000
      1.12000000	      1.69583486	     -1.98808936	      7.13029386	     -0.82071147	      0.90554788	     -0.19404754	    -18.29628499	      7.29919568	     -2.25314151	     -8.89996303	     12.79304422	      1.02132818	      6.19530819	     24.19018082	      1.59564966	     -3.82444554	     -5.67125795	      1.47178144	      8.27031111	     12.05519974	     -9.12813873	      4.23925636	      5.96015575	     -4.12489916	    -23.29867359	      6.89220647	     38.63447564	     90.00000000	     -6.23067600	    -13.86089877	     12.85055273	     21.48645904	     90.00000000
      1.13000000	      1.65229285	     -1.94404102	      7.00295047	     -0.80731285	      0.90426902	     -0.19520849	    -18.54490948	      7.08758240	     -2.66312980	    -10.01465930	     12.61537314	      2.30683381	      7.28963294	     24.50831076	      1.68301743	     -3.98880808	     -7.15761167	      1.74412461	      9.12680788	     11.94971763	     -8.89139758	      4.10264674	      6.03304698	     -4.15887742	    -23.12794018	      6.63712514	     38.35731121	     90.00000000	     -6.14731304	    -13.79994882	     13.71522213	     20.52747240	     90.00000000
      1.14000000	      1.70274974	     -1.93033706	      6.82826234	     -0.79347159	      0.90314815	     -0.19621203	    -18.89228702	      6.95396115	     -2.55197075	    -11.21097734	     12.37061283	      2.36058957	      7.31856837	     24.50871589	      1.73995731	     -3.71946336	     -8.64129328	      1.69037208	      8.98469863	     11.93976751	     -8.77537304	      3.97192399	      6.05818303	     -4.45523441	    -23.02515266	      6.57359451	     38.73827269	     90.00000000	     -6.64699388	    -13.93634570	     13.60674179	     21.13382976	     90.00000000
